<svg xmlns="http://www.w3.org/2000/svg" viewBox="0 0 512 512">
  <path fill="#6856bf" d="M511.017 397.885L398.792 103.431c-2.216-5.815-7.793-9.658-14.017-9.658h-257.55c-6.223 0-11.8 3.843-14.017 9.658L.984 397.885c-1.757 4.611-1.135 9.791 1.665 13.853 2.799 4.063 7.417 6.489 12.352 6.489h482c4.934 0 9.552-2.426 12.352-6.489 2.799-4.062 3.421-9.242 1.664-13.853z"/>
  <path fill="#5b4ca8" d="M113.208 103.431L.984 397.885c-1.757 4.611-1.135 9.791 1.665 13.853 2.799 4.063 7.417 6.489 12.352 6.489h230.167L121.885 94.763c-3.918 1.494-7.124 4.594-8.677 8.668z"/>
  <path fill="#856ff8" d="M113.208 103.431L.984 397.885c-1.757 4.611-1.135 9.791 1.665 13.853 2.799 4.063 7.417 6.489 12.352 6.489h103.224V96.802c-2.215 1.661-3.985 3.923-5.017 6.629z"/>
</svg>
